Coordinates
version=1
nRows=14
nColumns=24
inDegrees=yes

Units are S.I. units (second, meters, Newtons, ...)
Angles are in degrees.

endheader
time	pelvis_tilt	pelvis_list	pelvis_rotation	pelvis_tx	pelvis_ty	pelvis_tz	hip_flexion_r	hip_adduction_r	hip_rotation_r	knee_angle_r	ankle_angle_r	subtalar_angle_r	mtp_angle_r	hip_flexion_l	hip_adduction_l	hip_rotation_l	knee_angle_l	ankle_angle_l	subtalar_angle_l	mtp_angle_l	lumbar_extension	lumbar_bending	lumbar_rotation
      6.10000000	      8.26914989	      0.98310930	      5.20248977	      0.50035439	      0.87983121	      0.24243700	    -33.92946115	      6.78175318	     -4.02048094	     -2.17090000	     24.15285290	      4.32383599	      0.00000000	     12.23874444	      7.01514262	     11.17397960	      1.88258397	      2.90482799	    -21.46600036	      0.00000000	    -27.26504745	      1.46247233	      1.33545257
      6.11000000	      8.33601384	      1.56336399	      5.43351997	      0.51619773	      0.87868966	      0.24126494	    -33.96406990	      6.16904051	     -5.53322293	     -4.17317147	     23.87615263	      6.10840655	      0.00000000	     13.11166147	      8.15473618	      9.93291195	     -1.21379696	      3.31909541	    -19.50515609	      0.00000000	    -27.24336625	      0.80404107	      0.99975560
      6.12000000	      8.35721083	      2.14723419	      5.70887155	      0.53220287	      0.87782066	      0.24012501	    -33.76636710	      5.50101879	     -7.12845438	     -6.48803635	     23.28582910	      7.96575564	      0.00000000	     14.19496757	      9.20828932	      8.15631884	     -4.70500131	      4.06992729	    -16.59085507	      0.00000000	    -27.16141010	      0.12243914	      0.61642402
      6.13000000	      8.33955042	      2.66394337	      5.98710010	      0.54828448	      0.87723150	      0.23910105	    -33.30488684	      4.81547992	     -8.61692387	     -9.14772687	     22.24509955	      9.63273675	      0.00000000	     15.38565601	     10.04418264	      6.30779007	     -8.33893058	      4.76794353	    -13.58905241	      0.00000000	    -27.03456676	     -0.51624922	      0.30664522
      6.14000000	      8.35573354	      3.11730123	      6.23420326	      0.56436936	      0.87700065	      0.23822413	    -32.64089725	      4.10653566	     -9.84640065	    -12.14984291	     20.63630041	     10.95104065	      0.00000000	     16.48765216	     10.67058660	      4.73349581	    -11.89368367	      5.36290202	    -11.05895882	      0.00000000	    -26.96205420	     -1.11019361	      0.03688813
      6.15000000	      8.37675429	      3.47443275	      6.44889466	      0.58040375	      0.87704994	      0.23743291	    -31.72304716	      3.40095963	    -10.81360571	    -15.48431647	     18.40847175	     11.97930044	      0.00000000	     17.45905236	     11.12455834	      3.67802978	    -15.25471600	      5.92712169	     -9.34880482	      0.00000000	    -26.89599219	     -1.61126782	     -0.16960569
      6.16000000	      8.55770452	      3.82935547	      6.57451071	      0.59630810	      0.87753191	      0.23680928	    -30.72388128	      2.62208492	    -11.51175376	    -19.10533217	     15.59563095	     12.58911845	      0.00000000	     18.07990629	     11.48182853	      2.81879312	    -18.34649151	      6.79210802	     -7.88755829	      0.00000000	    -27.04644518	     -2.12227856	     -0.29587681
      6.17000000	      8.75348685	      4.10228261	      6.62111297	      0.61204868	      0.87819555	      0.23625579	    -29.47906078	      1.84482702	    -11.89467121	    -22.96920477	     12.22823844	     12.81025901	      0.00000000	     18.45161622	     11.73706566	      2.29423828	    -21.08084023	      7.86320107	     -6.92188128	      0.00000000	    -27.21540580	     -2.54629582	     -0.34985632
      6.18000000	      8.96915958	      4.30824380	      6.55383404	      0.62755554	      0.87899591	      0.23576566	    -28.00796329	      1.04583688	    -12.00344387	    -27.02479453	      8.55725024	     12.77697614	      0.00000000	     18.54237489	     11.90418435	      1.91552789	    -23.40350907	      9.15174431	     -6.22769761	      0.00000000	    -27.41658394	     -2.89959443	     -0.30006354
      6.19000000	      9.14651739	      4.48120267	      6.36573518	      0.64282308	      0.87984166	      0.23531050	    -26.29076090	      0.19954391	    -11.86153665	    -31.19851969	      4.91321498	     12.64149658	      0.00000000	     18.37861598	     12.03461974	      1.61949633	    -25.24522928	     10.57077302	     -5.77824103	      0.00000000	    -27.57505873	     -3.22435099	     -0.20606070
      6.20000000	      9.26059577	      4.63982181	      6.04776114	      0.65782664	      0.88071364	      0.23492070	    -24.33431097	     -0.69944198	    -11.49668413	    -35.42244451	      1.66540691	     12.49717048	      0.00000000	     18.00894380	     12.12931490	      1.26498314	    -26.61987429	     12.07439854	     -5.41629694	      0.00000000	    -27.66258732	     -3.54682510	     -0.07967655
      6.21000000	      9.29409677	      4.83089683	      5.58715912	      0.67257740	      0.88163330	      0.23461800	    -22.14322263	     -1.68516620	    -10.92582689	    -39.65494025	     -0.83626926	     12.42531670	      0.00000000	     17.46192059	     12.23565251	      0.82400108	    -27.52331949	     13.55392592	     -5.14467515	      0.00000000	    -27.65719032	     -3.92550892	      0.02544581
      6.22000000	      9.25959274	      5.06261939	      4.99622144	      0.68707978	      0.88266914	      0.23443340	    -19.74291403	     -2.74016328	    -10.18517253	    -43.84377845	     -2.37184954	     12.49007942	      0.00000000	     16.76346865	     12.35530516	      0.27952229	    -28.00633782	     14.97279665	     -4.86869564	      0.00000000	    -27.56287727	     -4.36851303	      0.09290077
      6.23000000	      9.18300033	      5.33221682	      4.31114932	      0.70134086	      0.88389658	      0.23436552	    -17.17841407	     -3.82742936	     -9.32779364	    -47.91935910	     -2.86996276	     12.67091908	      0.00000000	     15.93217693	     12.49065073	     -0.34312726	    -28.13886565	     16.27669235	     -4.56124269	      0.00000000	    -27.40717341	     -4.86035328	      0.11090410
